<?xml version="1.0" encoding="UTF-8" standalone="no"?>
<svg
   xmlns="http://www.w3.org/2000/svg"
   id="svg8"
   version="1.1"
   fill="none"
   viewBox="0 0 24 24"
   height="24"
   width="24">
  <path
     id="path825"
     d="M 13.292969,1.34375 C 10.216688,1.3443963 7.719396,3.8416881 7.71875,6.9179688 7.72026,7.8554252 8.0143426,8.757006 8.2952572,9.2808469 c 0,0 1.1882914,2.0319031 2.2633368,3.5375121 0.537522,0.752805 1.100308,1.504983 1.583984,2.074219 0.241838,0.284618 0.46312,0.523033 0.65625,0.695313 0.19313,0.172279 0.341136,0.296875 0.535156,0.296875 0.17354,0 0.308409,-0.102768 0.47461,-0.244141 0.166201,-0.141373 0.354459,-0.336857 0.558594,-0.572266 0.408267,-0.470816 0.883425,-1.102369 1.353515,-1.761718 0.939126,-1.317222 1.855422,-2.74378 2.360234,-3.6693361 0.504812,-0.925556 0.786375,-1.8055124 0.788204,-2.7193361 C 18.868494,3.8409067 16.370032,1.343289 13.292969,1.34375 Z m 0.02734,2.0234375 c 2.071648,-0.00107 3.748073,1.6744446 3.748047,3.7460937 -0.0016,0.668105 -0.181286,1.3234372 -0.53358,1.8989109 -0.352293,0.5754737 -1.009434,1.6005439 -1.679363,2.5405359 -0.334965,0.469997 -0.673802,0.919366 -0.957031,1.246094 -0.141615,0.163364 -0.270653,0.295694 -0.373047,0.382813 -0.102394,0.08712 -0.188431,0.113281 -0.173829,0.113281 0.01895,0 -0.08956,-0.03651 -0.21289,-0.146484 -0.123332,-0.109974 -0.277893,-0.27537 -0.447266,-0.47461 -0.338746,-0.398479 -0.741018,-0.935177 -1.125,-1.472656 C 10.873155,10.230719 10.36295,9.4375693 10.064365,8.9527634 9.7657791,8.4679576 9.5771507,7.797526 9.5761719,7.1132812 9.5761449,5.0431048 11.250136,3.3681995 13.320312,3.3671875 Z m -0.02539,2.1289063 C 12.526444,5.4955254 11.89982,6.1221501 11.900388,6.890625 11.901026,7.6582536 12.52729,8.283771 13.294919,8.2832031 14.061708,8.282565 14.686863,7.6574074 14.6875,6.890625 14.688068,6.1229966 14.06255,5.4967326 13.294922,5.4960938 Z m 9.492187,2.828125 c -1.158831,0.4981014 -2.317704,0.9961023 -3.476562,1.4941409 l -1.673828,2.5683593 3.451172,-1.482422 v 7.607422 l -4.734375,1.910156 v -6.181641 l -0.830078,1.117188 -0.869141,0.955078 v 4.117188 L 8.921875,18.150391 V 12.378906 L 8.4667969,11.753906 7.7060547,10.667969 6.6953125,8.9765625 1.1074219,11.0625 v 11.451172 l 6.9707031,-2.871094 7.427734,2.955078 7.28125,-2.939453 z M 7.2207031,10.595703 v 7.5625 l -4.4121093,1.814453 v -7.730468 z"
     style="color:#000000;fill:#555d66;" />
</svg>
